#!OML:ASF H:\Dans Jumps\Project 1\Capture day 1\Session 1\subject.ASF
:FULLY-SPECIFIED
:DEGREES
298
root 0.40739 15.5413 -14.3178 24.5926 0.968915 -2.09759
lowerback 17.8388 -0.0724958 -1.27538
upperback 0.808579 -0.0462517 3.19245
thorax -9.15057 0.109823 4.21414
lowerneck -22.8185 0.64244 -1.50885
upperneck 13.7834 1.64383 -1.53283
head 7.98718 0.530939 -0.0565846
rclavicle 1.21259e-014 -2.90226e-014
rhumerus -33.1993 -28.071 -67.5653
rradius 17.4489
rwrist 45.2876
rhand -19.7587 -27.4122
rfingers 7.12502
rthumb 6.57277 -57.2902
lclavicle 1.21259e-014 -2.90226e-014
lhumerus -28.2622 21.0783 76.5397
lradius 3.54276
lwrist -18.2313
lhand -24.8021 -2.50917
lfingers 7.12502
lthumb 1.7027 27.4638
rfemur -58.6043 1.12806 20.824
rtibia 66.1865
rfoot -32.7275 -15.4845
rtoes 1.5034
lfemur -58.7688 4.80918 -19.4456
ltibia 65.8223
lfoot -27.6582 20.2014
ltoes -8.99106
299
root 0.400482 15.5122 -14.259 24.7581 1.03262 -2.12526
lowerback 17.9396 -0.0362814 -1.31852
upperback 0.661197 -0.000287158 3.22907
thorax -9.37338 0.140736 4.27353
lowerneck -22.977 0.596435 -1.54631
upperneck 13.7519 1.58477 -1.47239
head 8.00165 0.506878 -0.0376742
rclavicle -5.36719e-015 -1.98785e-015
rhumerus -32.4808 -28.3926 -67.8273
rradius 17.3285
rwrist 45.5634
rhand -19.8253 -27.3247
rfingers 7.12502
rthumb 6.50842 -57.2047
lclavicle -5.36719e-015 -1.98785e-015
lhumerus -27.0995 21.4613 76.8299
lradius 3.23876
lwrist -18.5483
lhand -24.9611 -2.29033
lfingers 7.12502
lthumb 1.54917 27.6838
rfemur -58.7379 1.26045 20.8484
rtibia 66.5514
rfoot -32.6776 -15.6929
rtoes 1.6536
lfemur -58.9263 4.79692 -19.3724
ltibia 66.2245
lfoot -27.7213 20.2705
ltoes -8.9655
300
root 0.393324 15.4826 -14.1955 24.8904 1.08322 -2.15489
lowerback 18.0098 0.00272307 -1.36259
upperback 0.520416 0.0481406 3.25793
thorax -9.57263 0.172307 4.32342
lowerneck -23.1166 0.553123 -1.56869
upperneck 13.7149 1.52602 -1.42202
head 8.01142 0.482943 -0.0246301
rclavicle -6.16232e-015 -2.38542e-015
rhumerus -31.7152 -28.6789 -68.153
rradius 17.2579
rwrist 45.7106
rhand -19.9134 -27.2406
rfingers 7.12502
rthumb 6.4234 -57.1232
lclavicle -6.16232e-015 -2.38542e-015
lhumerus -25.9324 21.8305 77.1256
lradius 3.03666
lwrist -18.9324
lhand -25.1441 -2.14547
lfingers 7.12502
lthumb 1.37237 27.8299
rfemur -58.8165 1.37369 20.8865
rtibia 66.9162
rfoot -32.6191 -15.947
rtoes 1.74923
lfemur -59.0297 4.82918 -19.3076
ltibia 66.6294
lfoot -27.7898 20.2774
ltoes -8.92973
301
root 0.386116 15.4527 -14.1275 24.9878 1.12776 -2.19354
lowerback 18.055 0.0415638 -1.39726
upperback 0.383736 0.0977255 3.28282
thorax -9.75388 0.203617 4.3625
lowerneck -23.2451 0.513545 -1.57399
upperneck 13.684 1.46924 -1.38444
head 8.02163 0.459516 -0.018426
rclavicle 9.54166e-015 -1.03368e-014
rhumerus -30.9032 -28.897 -68.5509
rradius 17.2458
rwrist 45.7224
rhand -20.0371 -27.174
rfingers 7.12502
rthumb 6.30398 -57.0602
lclavicle 9.54166e-015 -1.03368e-014
lhumerus -24.7817 22.1858 77.4221
lradius 2.95787
lwrist -19.359
lhand -25.3244 -2.06356
lfingers 7.12502
lthumb 1.19826 27.9128
rfemur -58.8335 1.45845 20.9508
rtibia 67.2764
rfoot -32.5582 -16.2613
rtoes 1.78659
lfemur -59.0773 4.90505 -19.2417
ltibia 67.035
lfoot -27.863 20.2331
ltoes -8.93036
302
root 0.379104 15.4231 -14.0548 25.0452 1.16912 -2.25034
lowerback 18.0788 0.0780688 -1.41247
upperback 0.253202 0.148069 3.30724
thorax -9.9168 0.233983 4.38898
lowerneck -23.3598 0.475361 -1.57954
upperneck 13.6588 1.4133 -1.34204
head 8.03146 0.437018 -0.0104937
rclavicle 3.97569e-016 -1.07344e-014
rhumerus -30.0438 -28.9993 -69.0363
rradius 17.3094
rwrist 45.5951
rhand -20.208 -27.1286
rfingers 7.12502
rthumb 6.13904 -57.0196
lclavicle 3.97569e-016 -1.07344e-014
lhumerus -23.6605 22.5306 77.714
lradius 3.00067
lwrist -19.8013
lhand -25.5197 -2.10812
lfingers 7.12502
lthumb 1.00966 27.8692
rfemur -58.7722 1.51038 21.0526
rtibia 67.6204
rfoot -32.5134 -16.6076
rtoes 1.79965
lfemur -59.0603 5.02729 -19.1654
ltibia 67.4333
lfoot -27.9298 20.1778
ltoes -9.11596
303
root 0.372493 15.3949 -13.9774 25.0673 1.21041 -2.32874
lowerback 18.0781 0.111216 -1.40618
upperback 0.127533 0.198864 3.33638
thorax -10.0608 0.263231 4.40746
lowerneck -23.4921 0.441337 -1.57886
upperneck 13.6681 1.3631 -1.30484
head 8.05596 0.416511 -0.00448497
rclavicle -3.97569e-016 -8.34896e-015
rhumerus -29.1352 -28.9394 -69.6114
rradius 17.4582
rwrist 45.3294
rhand -20.4167 -27.093
rfingers 7.12502
rthumb 5.93749 -56.9899
lclavicle -3.97569e-016 -8.34896e-015
lhumerus -22.5809 22.8691 78.0019
lradius 3.18749
lwrist -20.1739
lhand -25.6444 -2.20534
lfingers 7.12502
lthumb 0.88918 27.7725
rfemur -58.6316 1.52467 21.1963
rtibia 67.9341
rfoot -32.4848 -16.9665
rtoes 1.7464
lfemur -58.9781 5.19779 -19.0753
ltibia 67.8144
lfoot -28.0048 20.1258
ltoes -9.57179
304
root 0.366361 15.3689 -13.8959 25.0605 1.25184 -2.42919
lowerback 18.0593 0.140902 -1.38143
upperback 0.0011197 0.249827 3.37301
thorax -10.1956 0.29168 4.42319
lowerneck -23.6229 0.409064 -1.58864
upperneck 13.6945 1.31681 -1.25657
head 8.08585 0.398309 0.00745975
rclavicle 2.78299e-015 -3.26007e-014
rhumerus -28.1842 -28.6625 -70.2786
rradius 17.7046
rwrist 44.9123
rhand -20.6414 -27.0926
rfingers 7.12502
rthumb 5.72061 -56.9953
lclavicle 2.78299e-015 -3.26007e-014
lhumerus -21.5533 23.2037 78.2816
lradius 3.51968
lwrist -20.4423
lhand -25.6079 -2.25435
lfingers 7.12502
lthumb 0.92446 27.7234
rfemur -58.4178 1.50393 21.3806
rtibia 68.2008
rfoot -32.4739 -17.3191
rtoes 1.52301
lfemur -58.8322 5.41146 -18.9683
ltibia 68.1644
lfoot -28.1059 20.0939
ltoes -10.34
